<svg width="56" height="413" viewBox="0 0 56 413" fill="none" xmlns="http://www.w3.org/2000/svg">
<path d="M45 412.188H1.36364L1.36364 380.739H10.9091L10.9091 400.341H18.4091V382.358H27.9545L27.9545 400.341H35.4545L35.4545 380.824H45L45 412.188ZM1.36364 373.653L1.36364 360.443L19.0909 351.92V351.579L1.36364 343.056L1.36364 329.846L31.2784 345.869H45L45 357.63H31.2784L1.36364 373.653ZM39.0341 296.44L41.4205 296.611C43.4659 296.753 45.4261 297.094 47.3011 297.634C49.1761 298.159 50.8381 298.72 52.2869 299.317C53.7358 299.899 54.858 300.361 55.6534 300.702V307.946C54.858 307.719 53.7074 307.399 52.2017 306.987C50.7102 306.561 49.0199 306.178 47.1307 305.837C45.2557 305.482 43.3523 305.304 41.4205 305.304H39.0341L39.0341 296.44ZM1.36364 241.439L1.36364 229.763H31.2784C34.1193 229.777 36.6193 230.494 38.7784 231.915C40.9233 233.321 42.5994 235.267 43.8068 237.753C45 240.224 45.5966 243.072 45.5966 246.297C45.5966 249.095 45.1136 251.652 44.1477 253.967C43.1676 256.283 41.6335 258.129 39.5455 259.507C37.4432 260.885 34.7159 261.567 31.3636 261.553L31.3636 249.706C32.4574 249.663 33.3807 249.479 34.1335 249.152C34.8864 248.811 35.4545 248.342 35.8381 247.746C36.2074 247.135 36.392 246.396 36.392 245.53C36.392 244.649 36.2003 243.911 35.8168 243.314C35.4332 242.703 34.8651 242.241 34.1122 241.929C33.3452 241.616 32.4006 241.453 31.2784 241.439H1.36364ZM1.36364 195.325L1.36364 183.478H29.3182C32.642 183.478 35.5185 184.273 37.9474 185.864C40.3622 187.441 42.2301 189.643 43.5511 192.469C44.858 195.296 45.5114 198.577 45.5114 202.313C45.5114 206.077 44.858 209.373 43.5511 212.2C42.2301 215.026 40.3622 217.228 37.9474 218.805C35.5185 220.367 32.642 221.148 29.3182 221.148H1.36364L1.36364 209.302H28.2955C29.6449 209.302 30.8523 209.004 31.9176 208.407C32.9687 207.81 33.7926 206.987 34.3892 205.935C34.9858 204.87 35.2841 203.663 35.2841 202.313C35.2841 200.95 34.9858 199.742 34.3892 198.691C33.7926 197.64 32.9687 196.816 31.9176 196.219C30.8523 195.623 29.6449 195.325 28.2955 195.325H1.36364ZM1.36364 137.092H45V146.978L22.0739 162.745V163.001H45L45 174.848H1.36364L1.36364 164.791L24.2045 149.279V148.939H1.36364L1.36364 137.092ZM1.36364 116.642H45L45 128.488H1.36364L1.36364 116.642ZM23.1818 65.7546C28.0398 65.7546 32.1378 66.6992 35.4759 68.5884C38.7997 70.4776 41.321 73.0273 43.0398 76.2376C44.7443 79.4478 45.5966 83.0273 45.5966 86.9762C45.5966 90.9535 44.7372 94.5472 43.0185 97.7575C41.2855 100.953 38.7571 103.496 35.4332 105.385C32.0952 107.26 28.0114 108.198 23.1818 108.198C18.3239 108.198 14.233 107.26 10.9091 105.385C7.57102 103.496 5.04971 100.953 3.34517 97.7575C1.62642 94.5472 0.767044 90.9535 0.767044 86.9762C0.767044 83.0273 1.62642 79.4478 3.34517 76.2376C5.04971 73.0273 7.57102 70.4776 10.9091 68.5884C14.233 66.6992 18.3239 65.7546 23.1818 65.7546ZM23.1818 77.9421C20.5682 77.9421 18.3665 78.2901 16.5767 78.9862C14.7727 79.668 13.4091 80.6836 12.4858 82.033C11.5483 83.3683 11.0795 85.016 11.0795 86.9762C11.0795 88.9364 11.5483 90.5913 12.4858 91.9407C13.4091 93.2759 14.7727 94.2915 16.5767 94.9876C18.3665 95.6694 20.5682 96.0103 23.1818 96.0103C25.7955 96.0103 28.0043 95.6694 29.8082 94.9876C31.598 94.2915 32.9616 93.2759 33.8991 91.9407C34.8224 90.5913 35.2841 88.9364 35.2841 86.9762C35.2841 85.016 34.8224 83.3683 33.8991 82.033C32.9616 80.6836 31.598 79.668 29.8082 78.9862C28.0043 78.2901 25.7955 77.9421 23.1818 77.9421ZM45 57.2734H1.36364L1.36364 38.4382C1.36364 35.1996 1.95312 32.3658 3.1321 29.9368C4.31108 27.5078 6.00852 25.6186 8.22443 24.2692C10.4403 22.9197 13.0966 22.245 16.1932 22.245C19.3182 22.245 21.9531 22.9411 24.098 24.3331C26.2429 25.7109 27.8622 27.6499 28.956 30.1499C30.0497 32.6357 30.5966 35.5405 30.5966 38.8643V50.1143H21.392V41.2507C21.392 39.8587 21.2216 38.6726 20.8807 37.6925C20.5256 36.6982 19.9645 35.9382 19.1974 35.4126C18.4304 34.8729 17.429 34.603 16.1932 34.603C14.9432 34.603 13.9276 34.8729 13.1463 35.4126C12.3509 35.9382 11.7685 36.6982 11.3991 37.6925C11.0156 38.6726 10.8239 39.8587 10.8239 41.2507V45.4268H45V57.2734ZM24.9716 31.7053L45 20.7962V33.6655L24.9716 44.3189L24.9716 31.7053Z" fill="#130400"/>
<path d="M1.36364 0.388493L31.3636 1.49645V11.2124L1.36364 12.3203L1.36364 0.388493ZM45.6818 6.3544C45.6818 8.00213 45.1065 9.41548 43.956 10.5945C42.7912 11.7592 41.3778 12.3345 39.7159 12.3203C38.0966 12.3345 36.7116 11.7592 35.5611 10.5945C34.4105 9.41548 33.8352 8.00213 33.8352 6.3544C33.8352 4.7919 34.4105 3.41406 35.5611 2.22088C36.7116 1.01349 38.0966 0.402698 39.7159 0.388493C40.8239 0.402698 41.8324 0.693891 42.7415 1.26207C43.6364 1.81605 44.3537 2.54048 44.8935 3.43537C45.419 4.33026 45.6818 5.30327 45.6818 6.3544Z" fill="#F84E4F"/>
</svg>
