<svg width="290" height="56" viewBox="0 0 290 56" fill="none" xmlns="http://www.w3.org/2000/svg">
<path d="M53.0035 2.33252V36.5097H56.1895V45.1988H53.0035V54.4672H41.7077V45.1988H28.0947V36.3359L37.9424 2.33252H53.0035ZM41.7077 36.5097V14.3235L36.668 36.5097H41.7077Z" fill="#F62223"/>
<path d="M84.0527 2.10059V36.9439C84.0527 42.1574 83.9948 45.5172 83.9079 47.0233C83.821 48.5294 83.3866 49.8618 82.6045 51.0782C81.8515 52.2947 80.8088 53.1057 79.4764 53.5691C78.1731 54.0325 76.2036 54.2643 73.5679 54.2643H67.6013V45.1407C68.3254 45.1986 68.8468 45.2276 69.1654 45.2276C70.0053 45.2276 70.6715 44.9959 71.1639 44.5324C71.6563 44.069 71.9459 43.4897 72.0038 42.7946C72.0907 42.0995 72.1197 40.7672 72.1197 38.7976V2.10059H84.0527Z" fill="#130400" stroke="#808080" stroke-miterlimit="10"/>
<path d="M122.401 2.10059V36.9439C122.401 40.883 122.285 43.6635 122.053 45.2565C121.821 46.8495 121.155 48.5005 120.055 50.1804C118.954 51.8603 117.477 53.1347 115.652 54.0036C113.827 54.8725 111.684 55.3069 109.222 55.3069C106.5 55.3069 104.067 54.7856 101.981 53.7719C99.8959 52.7292 98.3318 51.3968 97.2892 49.7459C96.2465 48.095 95.6382 46.3572 95.4644 44.5035C95.2617 42.6788 95.1748 38.7976 95.1748 32.918V2.10059H107.079V41.2016C107.079 43.4897 107.195 44.9379 107.397 45.5751C107.6 46.2123 108.064 46.5309 108.701 46.5309C109.454 46.5309 109.946 46.1834 110.149 45.4882C110.352 44.7931 110.468 43.1422 110.468 40.5354V2.10059H122.401Z" fill="#130400" stroke="#808080" stroke-miterlimit="10"/>
<path d="M159.387 2.10059V54.2353H148.96L142.762 30.543V54.2353H132.799V2.10059H142.762L149.424 25.5902V2.10059H159.387Z" fill="#130400" stroke="#808080" stroke-miterlimit="10"/>
<path d="M180.994 2.10059V54.2353H169.09V2.10059H180.994Z" fill="#130400" stroke="#808080" stroke-miterlimit="10"/>
<path d="M217.923 32.6284C217.923 37.8708 217.807 41.5782 217.604 43.7505C217.402 45.9227 216.707 47.9212 215.577 49.717C214.447 51.5127 212.883 52.903 210.943 53.8588C209.002 54.8146 206.743 55.307 204.165 55.307C201.703 55.307 199.502 54.8436 197.562 53.9457C195.621 53.0188 194.028 51.6575 192.84 49.8328C191.653 48.0081 190.958 46.0096 190.726 43.8663C190.494 41.723 190.379 37.9577 190.379 32.5994V23.6786C190.379 18.4362 190.494 14.7288 190.697 12.5565C190.9 10.3842 191.595 8.38575 192.725 6.59C193.854 4.79425 195.418 3.40399 197.359 2.44819C199.299 1.49238 201.559 1 204.136 1C206.598 1 208.799 1.46342 210.74 2.3613C212.681 3.28813 214.274 4.64943 215.461 6.47414C216.649 8.29886 217.344 10.2974 217.575 12.4407C217.807 14.584 217.923 18.3493 217.923 23.7076V32.6284ZM206.019 15.4819C206.019 13.0489 205.903 11.5138 205.671 10.8187C205.44 10.1525 204.947 9.80497 204.223 9.80497C203.615 9.80497 203.123 10.0656 202.804 10.616C202.485 11.1663 202.312 12.7882 202.312 15.4529V39.8114C202.312 42.8526 202.427 44.7063 202.63 45.4014C202.833 46.0965 203.354 46.473 204.136 46.473C204.947 46.473 205.469 46.0676 205.7 45.2566C205.932 44.4456 206.048 42.505 206.048 39.4349V15.4819H206.019Z" fill="#130400" stroke="#808080" stroke-miterlimit="10"/>
<path d="M226.699 2.10059H235.128C240.746 2.10059 244.541 2.36126 246.539 2.85364C248.538 3.34603 250.16 4.62043 251.405 6.64789C252.651 8.67535 253.288 11.9193 253.288 16.3507C253.288 20.4057 252.853 23.1283 251.955 24.5185C251.058 25.9088 249.32 26.7487 246.713 27.0384C249.059 27.7045 250.652 28.6024 251.463 29.703C252.274 30.8326 252.766 31.8463 252.969 32.7732C253.172 33.7 253.259 36.2778 253.259 40.4775V54.2353H242.224V36.915C242.224 34.1345 242.021 32.3966 241.644 31.7305C241.268 31.0643 240.254 30.7457 238.603 30.7457V54.2643H226.699V2.10059ZM238.603 11.0214V22.6069C239.936 22.6069 240.891 22.4042 241.413 21.9697C241.963 21.5642 242.224 20.2029 242.224 17.8858V15.0184C242.224 13.3675 241.963 12.2669 241.442 11.7745C240.949 11.2821 239.993 11.0214 238.603 11.0214Z" fill="#130400" stroke="#808080" stroke-miterlimit="10"/>
<path d="M288.044 17.8855H276.98V14.0044C276.98 12.2086 276.835 11.0501 276.546 10.5577C276.256 10.0653 275.793 9.80466 275.126 9.80466C274.402 9.80466 273.881 10.1233 273.504 10.8184C273.128 11.5135 272.954 12.4983 272.954 13.8596C272.954 15.5974 273.157 16.9008 273.562 17.7987C273.968 18.6676 275.068 19.7392 276.922 20.9847C282.222 24.5762 285.553 27.5015 286.944 29.8186C288.334 32.1067 289 35.8141 289 40.9407C289 44.648 288.623 47.3996 287.841 49.1664C287.088 50.9332 285.611 52.4103 283.41 53.5978C281.209 54.7853 278.689 55.3936 275.764 55.3936C272.578 55.3936 269.855 54.6984 267.596 53.3371C265.337 51.9758 263.859 50.2091 263.164 48.0947C262.469 45.9804 262.122 42.9392 262.122 39.058V35.6403H273.186V41.9834C273.186 43.9239 273.331 45.1983 273.649 45.7486C273.968 46.299 274.518 46.5886 275.3 46.5886C276.082 46.5886 276.69 46.241 277.067 45.5169C277.443 44.8218 277.646 43.7501 277.646 42.3599C277.646 39.2897 277.27 37.2912 276.546 36.3354C275.793 35.3796 273.939 33.8156 270.985 31.6143C268.03 29.3841 266.061 27.7622 265.105 26.7484C264.149 25.7347 263.338 24.3444 262.701 22.5487C262.064 20.7529 261.745 18.4938 261.745 15.7133C261.745 11.7163 262.18 8.79093 263.077 6.96622C263.975 5.11254 265.424 3.66435 267.422 2.62166C269.42 1.57896 271.824 1.05762 274.663 1.05762C277.762 1.05762 280.398 1.63689 282.57 2.76648C284.742 3.89606 286.19 5.34425 286.886 7.05311C287.581 8.79093 287.957 11.7163 287.957 15.8581V17.8855H288.044Z" fill="#130400" stroke="#808080" stroke-miterlimit="10"/>
<path d="M18.2471 2.33252L28.0948 36.3359V45.1988H14.4819V54.4672H3.18601V45.1988H0V36.2201H3.18601V2.33252H18.2471ZM19.8112 36.2201L14.7715 14.0339V36.2201H19.8112Z" fill="#F62223"/>
</svg>
