<svg width="62" height="66" viewBox="0 0 62 66" fill="none" xmlns="http://www.w3.org/2000/svg">
<path d="M12.0555 7.17603L20.8572 25.6308L0.585764 22.9627L0.494612 23.2433L18.4627 33L0.494612 42.7567L0.585764 43.0373L20.8572 40.3692L12.0555 58.824L12.2941 58.9974L27.1258 44.9236L30.8525 65.0273H31.1475L34.8742 44.9236L49.7059 58.9974L49.9445 58.824L41.1428 40.3692L61.4142 43.0373L61.5054 42.7567L43.5373 33L61.5054 23.2433L61.4142 22.9627L41.1428 25.6308L49.9445 7.17603L49.7059 7.00265L34.8742 21.0764L31.1475 0.972659H30.8525L27.1258 21.0764L12.2941 7.00265L12.0555 7.17603Z" stroke="#E6E9F3" stroke-width="0.3"/>
</svg>
